<svg width="32" height="32" viewBox="0 0 32 32" fill="none" xmlns="http://www.w3.org/2000/svg">
  <!-- Globe circle -->
  <circle cx="14" cy="16" r="11" stroke="#999" strokeWidth="1.5" fill="none"/>
  <!-- Latitude lines -->
  <line x1="3" y1="16" x2="25" y2="16" stroke="#999" strokeWidth="0.75" strokeDasharray="2 2" opacity="0.5"/>
  <path d="M6 10 Q14 13 22 10" stroke="#999" strokeWidth="0.75" strokeDasharray="2 2" opacity="0.5" fill="none"/>
  <path d="M6 22 Q14 19 22 22" stroke="#999" strokeWidth="0.75" strokeDasharray="2 2" opacity="0.5" fill="none"/>
  <!-- Longitude line -->
  <path d="M14 5 Q18 16 14 27" stroke="#999" strokeWidth="0.75" strokeDasharray="2 2" opacity="0.5" fill="none"/>
  <!-- Location pin -->
  <path d="M14 6 C11 6 9 8 9 10.5 C9 14 14 19 14 19 C14 19 19 14 19 10.5 C19 8 17 6 14 6Z" 
        stroke="#999" strokeWidth="1.5" fill="none"/>
  <circle cx="14" cy="10.5" r="1.5" fill="currentColor"/>
  <!-- Pulse rings -->
  <circle cx="26" cy="8" r="3" stroke="#999" strokeWidth="1" fill="none" opacity="0.4"/>
  <circle cx="26" cy="8" r="1.5" fill="currentColor"/>
  <!-- Verified checkmark -->
  <path d="M24 8L25.5 9.5L28 7" stroke="#999" strokeWidth="1.2" strokeLinecap="round" strokeLinejoin="round"/>
</svg>